<svg xmlns="http://www.w3.org/2000/svg" viewBox="0 0 411.02 100"><defs><style>.cls-1{fill:#082945;}.cls-2{fill:#e51c4a;}.cls-3{fill:#fff;}</style></defs><title>ting_blue</title><g id="Layer_2" data-name="Layer 2"><g id="Layer_1-2" data-name="Layer 1"><rect class="cls-1" width="411.02" height="100"/><path class="cls-2" d="M170.67,32.1c0-1.69-2.31-2.48-4.09.1a2,2,0,0,0-1.69-2.74c-3.14-.68-2.16,3.89-1.44,9.23,0,0,7.27-3.41,7.22-6.58"/><path class="cls-3" d="M91.26,49,90,59.06l3.53.43s0,.35,0,.75-.12.71-.12.71l-6.09,0-5.81,0a3.64,3.64,0,0,1,0-.71,3.76,3.76,0,0,1,.16-.75L85,59.1l1.18-9.71-5.5-12.69-2.24-.47s0-.24,0-.59.16-.82.16-.82,3.46,0,4.91,0,5.34,0,5.34,0,0,.47,0,.82a3.4,3.4,0,0,1-.12.59l-2.67.43L90.67,47l6.52-10-3.3-.86a4.72,4.72,0,0,1,0-.55,3.93,3.93,0,0,1,.16-.86s2.71.08,4.2.08,3.85,0,3.85,0,0,.43,0,.82-.08.51-.08.51l-2.83,1Z"/><path class="cls-3" d="M116.29,41a3,3,0,0,1,3,3.1c0,.47-.47,3.34-2.67,14.38-.08.47.12.63.47.63.9,0,2.2-1.65,2.75-2.47a1.8,1.8,0,0,1,1.1.75c-1.76,2.4-3.81,3.93-5.93,3.93-3.06,0-3.3-1.65-3.14-2.71.51-2.71,2-10.21,2.47-12.93.36-1.76.47-2.39-.12-2.43-1.92,0-7,7.39-7.62,11.2l-1,6.32a14.63,14.63,0,0,1-3.14.24h-1.69l2-10.41c.47-2.51.63-3.38.86-5,.16-1.26.36-2.35-.31-2.35a5.75,5.75,0,0,0-2.67,1.06,2.28,2.28,0,0,1-.59-1.1,13.93,13.93,0,0,1,6.72-2.2c.86,0,2,.39,2,1.57,0,.47-.79,3.34-1.73,7.66,2.4-5.35,5.82-9.19,9.31-9.19"/><path class="cls-3" d="M135.67,50.54l1.34-6.4a4.87,4.87,0,0,0-3.53-1.61c-4,0-5.3,9.11-5.3,14,0,1.73.2,3.1.9,3.1,1.61,0,5.3-5.22,6.6-9.07m-.27,3.61c-1.69,3.54-4.28,7.11-7.62,7.11-4.48,0-4.79-4.4-4.79-6.91,0-5.66,4.21-13.43,10.25-13.43a6.56,6.56,0,0,1,4.09,1.69c.08-.59,1.14-6,1.29-6.72l.39-2.16-3.38-.16a2.66,2.66,0,0,1-.12-1.18l8.88-1.57C141.76,44.25,141,48.18,139,58.4c-.08.51.16.66.51.66,1,0,2.4-1.65,2.95-2.51a2.33,2.33,0,0,1,1.14.75c-1.81,2.43-3.85,4-6,4-3.07,0-3.15-1.69-3-2.71.12-.86.55-3.53.71-4.4"/><path class="cls-3" d="M150.49,58.4c-.12.51.12.67.43.67.94,0,2.24-1.65,2.75-2.51a2.33,2.33,0,0,1,1.14.75c-1.81,2.43-3.85,4-6,4-3.06,0-3.3-1.69-3.1-2.71L150,35.89l.35-2.16L147,33.57a2.67,2.67,0,0,1-.12-1.18l8.88-1.57Z"/><path class="cls-3" d="M165.82,42.64c0,.63-.79,5-2.95,15.75-.08.51.12.63.47.63.9,0,2.2-1.61,2.75-2.48a2.27,2.27,0,0,1,1.14.75c-1.81,2.4-3.85,4-6,4-3.06,0-3.3-1.69-3.14-2.71.51-2.75,2-10.26,2.55-13,.24-1.26.39-2.32-.28-2.32a6,6,0,0,0-2.67,1,2.36,2.36,0,0,1-.59-1.06,14,14,0,0,1,6.67-2.24c1.06,0,2,.59,2,1.73"/><path class="cls-3" d="M186,41a3,3,0,0,1,3,3.1c0,.47-.47,3.34-2.67,14.38-.08.47.12.63.47.63.9,0,2.2-1.65,2.75-2.47a1.8,1.8,0,0,1,1.1.75c-1.76,2.4-3.81,3.93-5.93,3.93-3.06,0-3.3-1.65-3.14-2.71.51-2.71,2-10.21,2.47-12.93.35-1.76.47-2.39-.12-2.43-1.92,0-7,7.39-7.62,11.2l-1,6.32a14.63,14.63,0,0,1-3.14.24H170.5l2-10.41c.47-2.51.63-3.38.86-5,.16-1.26.36-2.35-.31-2.35a5.75,5.75,0,0,0-2.67,1.06,2.28,2.28,0,0,1-.59-1.1,13.93,13.93,0,0,1,6.72-2.2c.86,0,2,.39,2,1.57,0,.47-.79,3.34-1.73,7.66C179.1,44.8,182.52,41,186,41"/><path class="cls-3" d="M205.7,50.54l1.38-6.32a4.88,4.88,0,0,0-3.57-1.65c-4.25,0-5.3,9-5.3,13.95,0,1.81.23,3.1.94,3.1,1.73,0,5.35-5.38,6.56-9.07m2.71-9.31a16.49,16.49,0,0,1,4.08-.47c-1.61,8.29-1.85,9.63-3.62,19-1,6.13-5.1,10.84-11.27,10.84-3.66,0-6.92-1.45-6.92-4a4.67,4.67,0,0,1,4.56-4.2,12.72,12.72,0,0,1-1.53,6.05,12.91,12.91,0,0,0,3.93.78c3.38,0,5.26-2,6.13-6.52l1.65-8.57c-1.49,3.5-4.56,7.11-7.46,7.11-4.48,0-4.95-4.28-4.95-6.79,0-5.66,3.73-13.55,10.25-13.55a7,7,0,0,1,4.28,1.85Z"/><path class="cls-3" d="M223.47,57.22c0-4.44-7.42-5.77-7.42-10.29,0-4.36,4.16-6,7.62-6,2.67,0,5.46,1.77,5.46,3.5,0,1.88-1.41,3.1-3.66,3.1a7.32,7.32,0,0,1,1.06-4.6,6.27,6.27,0,0,0-2.95-.71c-1.88,0-3.38.63-3.38,2.4,0,4.24,7.62,5.46,7.62,10.49,0,3.89-4,6.29-8.33,6.29-2.56,0-5.66-1.65-5.66-3.5s1.45-3.07,3.69-3.1a7.69,7.69,0,0,1-1.22,4.6,7.3,7.3,0,0,0,3.18.75c3,0,4-1.41,4-2.91"/><path class="cls-3" d="M304.27,42.8A7,7,0,0,0,300,41c-6.51,0-10.23,7.88-10.23,13.52,0,2.51.47,6.78,4.94,6.78,2.9,0,6-3.61,7.45-7.1l-1.65,8.55c-.86,4.47-2.74,6.51-6.11,6.51a12.88,12.88,0,0,1-3.92-.78,12.67,12.67,0,0,0,1.53-6,4.65,4.65,0,0,0-4.55,4.19c0,2.55,3.25,4,6.9,4,6.15,0,10.23-4.7,11.25-10.82,1.76-9.37,2-10.7,3.61-19a16.43,16.43,0,0,0-4.08.47Zm-8.39,16.82c-.71,0-.94-1.29-.94-3.1,0-4.9,1.06-13.92,5.29-13.92a4.86,4.86,0,0,1,3.57,1.65l-1.37,6.31c-1.21,3.68-4.82,9.06-6.55,9.06m-22.23-9.45c.94-4.31,1.73-7.17,1.73-7.64,0-1.18-1.1-1.57-2-1.57a13.89,13.89,0,0,0-6.7,2.2,2.34,2.34,0,0,0,.59,1.1A5.75,5.75,0,0,1,270,43.19c.67,0,.47,1.1.31,2.35-.24,1.65-.39,2.51-.86,5l-2,10.39h1.69a14.58,14.58,0,0,0,3.14-.24l1-6.31c.59-3.8,5.68-11.17,7.6-11.17.59,0,.47.67.12,2.43-.47,2.7-2,10.19-2.47,12.9-.16,1.06.08,2.71,3.14,2.71,2.12,0,4.15-1.53,5.92-3.92a1.81,1.81,0,0,0-1.1-.75c-.55.82-1.84,2.47-2.74,2.47-.35,0-.55-.16-.47-.63,2.19-11,2.66-13.88,2.66-14.35a3,3,0,0,0-3-3.1c-3.49,0-6.9,3.84-9.29,9.17M260.8,41a14,14,0,0,0-6.66,2.23,2.4,2.4,0,0,0,.59,1.06,6,6,0,0,1,2.67-1c.67,0,.51,1.06.27,2.31-.51,2.78-2,10.27-2.55,13-.16,1,.08,2.71,3.14,2.71,2.12,0,4.15-1.57,6-4a2.24,2.24,0,0,0-1.14-.74c-.55.86-1.84,2.47-2.74,2.47-.35,0-.55-.12-.47-.63,2.16-10.7,2.9-15.09,2.94-15.72,0-1.14-.94-1.72-2-1.72m-1.41-6.62a2.25,2.25,0,0,0,2.31,2.31A3.47,3.47,0,0,0,265,33.43a2.31,2.31,0,0,0-2.39-2.31,3.42,3.42,0,0,0-3.21,3.21m-15,.63c2.78,0,8.86-.08,10.31-.08l-.35,7.06a2.32,2.32,0,0,1-1.25.08s-.71-4.82-2.2-5.65c-2.27,0-4.19,0-4.19,0l-2.78,22.66,3.84.43s0,.35,0,.75-.16.71-.16.71l-6.35,0-6,0a3.91,3.91,0,0,1,0-.71,3.11,3.11,0,0,1,.16-.71l3.57-.43,2.74-22.7s-1.8,0-4.39,0c-1.41.94-3.29,5.57-3.29,5.57a2.27,2.27,0,0,1-1.25,0l1.33-7.06c6.31,0,8.9.08,10.31.08"/></g></g></svg>
