<svg xmlns="http://www.w3.org/2000/svg" viewBox="0 0 202.95 41.22"><defs><style>.cls-1{fill:#e51c4a;}.cls-2{fill:#082945;}</style></defs><title>web_white</title><g id="Layer_2" data-name="Layer 2"><g id="Layer_1-2" data-name="Layer 1"><path class="cls-1" d="M92.18,2.72c0-1.69-2.31-2.48-4.09.1A2,2,0,0,0,86.4.07C83.26-.61,84.24,4,85,9.29c0,0,7.27-3.41,7.22-6.58"/><path class="cls-2" d="M12.77,19.62,11.55,29.67l3.53.43s0,.35,0,.75-.12.71-.12.71l-6.09,0L3,31.56a3.64,3.64,0,0,1,0-.71,3.76,3.76,0,0,1,.16-.75l3.38-.39L7.74,20,2.24,7.32,0,6.85s0-.24,0-.59.16-.83.16-.83,3.46,0,4.91,0,5.34,0,5.34,0,0,.47,0,.83a3.4,3.4,0,0,1-.12.59l-2.67.43,4.56,10.37,6.52-10-3.3-.86a4.72,4.72,0,0,1,0-.55,3.93,3.93,0,0,1,.16-.86s2.71.08,4.2.08,3.85,0,3.85,0,0,.43,0,.83-.08.51-.08.51l-2.83,1Z"/><path class="cls-2" d="M37.8,11.57a3,3,0,0,1,3,3.1c0,.47-.47,3.34-2.67,14.38-.08.47.12.63.47.63.9,0,2.2-1.65,2.75-2.47a1.8,1.8,0,0,1,1.1.75c-1.76,2.4-3.81,3.93-5.93,3.93-3.06,0-3.3-1.65-3.14-2.71.51-2.71,2-10.21,2.47-12.93.36-1.76.47-2.39-.12-2.43-1.92,0-7,7.39-7.62,11.2l-1,6.32a14.63,14.63,0,0,1-3.14.24H22.28l2-10.41c.47-2.51.63-3.38.86-5,.16-1.26.36-2.35-.31-2.35a5.75,5.75,0,0,0-2.67,1.06,2.28,2.28,0,0,1-.59-1.1,13.93,13.93,0,0,1,6.72-2.2c.86,0,2,.39,2,1.57,0,.47-.79,3.34-1.73,7.66,2.4-5.35,5.82-9.19,9.31-9.19"/><path class="cls-2" d="M57.18,21.15l1.34-6.4A4.87,4.87,0,0,0,55,13.14c-4,0-5.3,9.11-5.3,14,0,1.73.2,3.1.9,3.1,1.61,0,5.3-5.22,6.6-9.08m-.27,3.61c-1.69,3.54-4.28,7.11-7.62,7.11-4.48,0-4.79-4.4-4.79-6.91,0-5.66,4.21-13.43,10.25-13.43a6.56,6.56,0,0,1,4.09,1.69c.08-.59,1.14-6,1.29-6.72l.39-2.16-3.38-.16A2.66,2.66,0,0,1,57,3L65.9,1.43C63.27,14.86,62.52,18.79,60.56,29c-.08.51.16.66.51.66,1,0,2.4-1.65,2.95-2.51a2.33,2.33,0,0,1,1.14.75c-1.81,2.43-3.85,4-6,4-3.07,0-3.15-1.69-3-2.71.12-.86.55-3.53.71-4.4"/><path class="cls-2" d="M72,29c-.12.51.12.67.43.67.94,0,2.24-1.65,2.75-2.51a2.33,2.33,0,0,1,1.14.75c-1.81,2.43-3.85,4-6,4-3.06,0-3.3-1.69-3.1-2.71L71.49,6.5l.35-2.16-3.38-.16A2.67,2.67,0,0,1,68.35,3l8.88-1.57Z"/><path class="cls-2" d="M87.33,13.25c0,.63-.79,5-2.95,15.75-.08.51.12.63.47.63.9,0,2.2-1.61,2.75-2.48a2.27,2.27,0,0,1,1.14.75c-1.81,2.4-3.85,4-6,4-3.06,0-3.3-1.69-3.14-2.71.51-2.75,2-10.26,2.55-13,.24-1.26.39-2.32-.28-2.32a6,6,0,0,0-2.67,1,2.36,2.36,0,0,1-.59-1.06,14,14,0,0,1,6.67-2.24c1.06,0,2,.59,2,1.73"/><path class="cls-2" d="M107.53,11.57a3,3,0,0,1,3,3.1c0,.47-.47,3.34-2.67,14.38-.08.47.12.63.47.63.9,0,2.2-1.65,2.75-2.47a1.8,1.8,0,0,1,1.1.75c-1.76,2.4-3.81,3.93-5.93,3.93-3.06,0-3.3-1.65-3.14-2.71.51-2.71,2-10.21,2.47-12.93.35-1.76.47-2.39-.12-2.43-1.92,0-7,7.39-7.62,11.2l-1,6.32a14.63,14.63,0,0,1-3.14.24H92l2-10.41c.47-2.51.63-3.38.86-5,.16-1.26.36-2.35-.31-2.35a5.75,5.75,0,0,0-2.67,1.06,2.28,2.28,0,0,1-.59-1.1A13.93,13.93,0,0,1,98,11.53c.86,0,2,.39,2,1.57,0,.47-.79,3.34-1.73,7.66,2.4-5.35,5.82-9.19,9.31-9.19"/><path class="cls-2" d="M127.21,21.15l1.38-6.32A4.88,4.88,0,0,0,125,13.17c-4.25,0-5.3,9-5.3,13.95,0,1.81.23,3.1.94,3.1,1.73,0,5.35-5.38,6.56-9.08m2.71-9.31a16.49,16.49,0,0,1,4.08-.47c-1.61,8.29-1.85,9.62-3.62,19-1,6.13-5.1,10.84-11.27,10.84-3.66,0-6.92-1.45-6.92-4a4.67,4.67,0,0,1,4.56-4.2,12.72,12.72,0,0,1-1.53,6.05,12.91,12.91,0,0,0,3.93.78c3.38,0,5.26-2,6.13-6.52l1.65-8.57c-1.49,3.5-4.56,7.11-7.46,7.11-4.48,0-4.95-4.28-4.95-6.79,0-5.66,3.73-13.55,10.25-13.55a7,7,0,0,1,4.28,1.85Z"/><path class="cls-2" d="M145,27.83c0-4.44-7.42-5.77-7.42-10.29,0-4.36,4.16-6,7.62-6,2.67,0,5.46,1.77,5.46,3.5,0,1.88-1.41,3.1-3.66,3.1a7.32,7.32,0,0,1,1.06-4.6,6.27,6.27,0,0,0-2.95-.71c-1.88,0-3.38.63-3.38,2.4,0,4.24,7.62,5.46,7.62,10.49,0,3.89-4,6.29-8.33,6.29-2.56,0-5.66-1.65-5.66-3.5s1.45-3.07,3.69-3.1a7.69,7.69,0,0,1-1.22,4.6,7.3,7.3,0,0,0,3.18.75c3,0,4-1.41,4-2.91"/><path class="cls-2" d="M190.25,24.39a1.35,1.35,0,0,1,1.45.71c3.14,5.29,3.8,6.82,6,6.82s3.37-1.45,5.25-3.76a2.12,2.12,0,0,0-1.06-.71c-.59.78-1.25,1.88-1.92,1.88s-2.47-3.1-4-5.33c-.24-.31-.67-.9-1.14-1,6.23-2.51,7.06-6.15,7.06-8.31a3.11,3.11,0,0,0-3.33-3.1c-3.17,0-6.78,3.88-9,8.15.63-2,1.26-2.7,4.2-18.27L185,3.06A2.53,2.53,0,0,0,185,4.24l3.41.16-.39,2.16-2.78,14.86L183.39,31.6h1.68a17.26,17.26,0,0,0,3.18-.31l1.21-8c.59-3.41,5.41-9.53,7.45-9.53,1.49,0,0,9.25-6.59,9.68Zm-17.4,4.78c-.16,1-.08,2.71,3,2.71,2.12,0,4.16-1.53,6-4a2.32,2.32,0,0,0-1.14-.74c-.55.86-1.92,2.51-2.94,2.51-.35,0-.59-.16-.51-.67,2-10.19,2.7-14.11,5.33-27.52l-8.86,1.57a2.64,2.64,0,0,0,.12,1.18l3.37.16-.39,2.16c-.16.74-1.21,6.11-1.29,6.7a6.56,6.56,0,0,0-4.08-1.68c-6,0-10.23,7.76-10.23,13.41,0,2.51.31,6.9,4.78,6.9,3.33,0,5.92-3.57,7.6-7.1-.16.86-.59,3.53-.71,4.39m-5.6,1.06c-.71,0-.9-1.37-.9-3.1,0-4.86,1.33-14,5.29-14a4.87,4.87,0,0,1,3.53,1.61l-1.33,6.39c-1.29,3.84-5,9.06-6.58,9.06m-14.7-.75a2.18,2.18,0,0,0,2.31,2.71,3,3,0,0,0,3-3c.2-2-.86-2.7-2.31-2.7a2.94,2.94,0,0,0-3,3"/></g></g></svg>
